# Blender v2.76 (sub 0) OBJ File: ''
# www.blender.org
mtllib model.mtl
o Model_Model.006
v -0.398939 0.109725 0.023939
v -0.500000 -0.000000 -0.125000
v -0.500000 -0.000000 0.125000
v -0.398939 0.109725 -0.023939
v 0.101061 0.109725 0.023939
v -0.398939 0.109725 -0.023939
v -0.398939 0.109725 0.023939
v 0.101061 0.109725 -0.023939
v 0.357078 0.109725 -0.000000
v 0.101061 0.109725 0.256017
v 0.000000 -0.000000 0.125000
v 0.101061 0.109725 0.256017
v 0.101061 0.109725 0.023939
v 0.000000 -0.000000 0.500000
v 0.000000 -0.000000 0.125000
v 0.101061 -0.109725 0.256017
v 0.000000 -0.000000 0.500000
v 0.101061 -0.109725 0.023939
v 0.000000 -0.000000 0.125000
v -0.398939 -0.109725 0.023939
v 0.101061 -0.109725 0.023939
v -0.500000 -0.000000 0.125000
v 0.101061 0.109725 0.023939
v -0.500000 -0.000000 0.125000
v 0.000000 -0.000000 0.125000
v -0.398939 0.109725 0.023939
v -0.500000 -0.000000 -0.125000
v -0.398939 -0.109725 0.023939
v -0.500000 -0.000000 0.125000
v -0.398939 -0.109725 -0.023939
v -0.500000 -0.000000 -0.125000
v 0.101061 -0.109725 -0.023939
v -0.398939 -0.109725 -0.023939
v -0.000000 -0.000000 -0.125000
v -0.398939 0.109725 -0.023939
v -0.000000 -0.000000 -0.125000
v -0.500000 -0.000000 -0.125000
v 0.101061 0.109725 -0.023939
v 0.101061 0.109725 -0.256017
v -0.000000 -0.000000 -0.125000
v 0.101061 0.109725 -0.023939
v -0.000000 -0.000000 -0.500000
v 0.101061 0.109725 -0.256017
v 0.500000 -0.000000 0.000000
v -0.000000 -0.000000 -0.500000
v 0.357078 0.109725 -0.000000
v 0.101061 0.109725 -0.256017
v 0.101061 0.109725 0.256017
v 0.500000 -0.000000 0.000000
v 0.357078 0.109725 -0.000000
v 0.000000 -0.000000 0.500000
v 0.101061 -0.109725 0.256017
v 0.500000 -0.000000 0.000000
v 0.000000 -0.000000 0.500000
v 0.357078 -0.109725 -0.000000
v 0.101061 -0.109725 0.023939
v 0.357078 -0.109725 -0.000000
v 0.101061 -0.109725 0.256017
v 0.101061 -0.109725 -0.023939
v -0.398939 -0.109725 -0.023939
v -0.398939 -0.109725 0.023939
v 0.101061 -0.109725 -0.256017
v -0.000000 -0.000000 -0.125000
v 0.101061 -0.109725 -0.256017
v 0.101061 -0.109725 -0.023939
v -0.000000 -0.000000 -0.500000
v 0.500000 -0.000000 0.000000
v 0.101061 -0.109725 -0.256017
v -0.000000 -0.000000 -0.500000
v 0.357078 -0.109725 -0.000000
vt 0.088095 0.475283
vt 0.000000 0.625000
vt 0.000000 0.375000
vt 0.088095 0.524717
vt 0.604345 0.475283
vt 0.604345 0.524717
vt 0.868683 0.500000
vt 0.604345 0.235662
vt 0.500000 0.375000
vt 0.500000 0.000000
vt 0.597977 0.251795
vt 0.597977 0.476791
vt 0.113235 0.476791
vt 0.113235 0.523208
vt 0.597977 0.523208
vt 0.500000 0.625000
vt 0.604345 0.764337
vt 0.500000 1.000000
vt 1.000000 0.500000
vt 0.846181 0.500000
vt 0.597977 0.748204
vn -0.735600 0.677500 0.000000
vn 0.000000 1.000000 0.000000
vn -0.735600 -0.677500 0.000000
vn 0.000000 -0.677500 0.735600
vn 0.000000 0.677500 0.735600
vn -0.735500 -0.677500 0.000000
vn 0.000000 -0.677500 -0.735600
vn 0.000000 0.677500 -0.735600
vn 0.520100 0.677500 -0.520100
vn 0.520100 0.677500 0.520100
vn 0.520100 -0.677500 0.520100
vn 0.000000 -1.000000 0.000000
vn 0.520100 -0.677500 -0.520100
usemtl FrontCol
s off
f 1/1/1 2/2/1 3/3/1
f 2/2/1 1/1/1 4/4/1
f 5/5/2 6/4/2 7/1/2
f 6/4/2 5/5/2 8/6/2
f 5/5/2 9/7/2 8/6/2
f 9/7/2 5/5/2 10/8/2
f 11/9/1 12/8/1 13/5/1
f 12/8/1 11/9/1 14/10/1
f 15/9/3 16/11/3 17/10/3
f 16/11/3 15/9/3 18/12/3
f 19/9/4 20/13/4 21/12/4
f 20/13/4 19/9/4 22/3/4
f 23/5/5 24/3/5 25/9/5
f 24/3/5 23/5/5 26/1/5
f 27/2/3 28/13/3 29/3/3
f 28/13/6 27/2/6 30/14/6
f 31/2/7 32/15/7 33/14/7
f 32/15/7 31/2/7 34/16/7
f 35/4/8 36/16/8 37/2/8
f 36/16/8 35/4/8 38/6/8
f 39/17/1 40/16/1 41/6/1
f 40/16/1 39/17/1 42/18/1
f 43/17/9 44/19/9 45/18/9
f 44/19/9 43/17/9 46/7/9
f 8/6/2 9/7/2 47/17/2
f 48/8/10 49/19/10 50/7/10
f 49/19/10 48/8/10 51/10/10
f 52/11/11 53/19/11 54/10/11
f 53/19/11 52/11/11 55/20/11
f 56/12/12 57/20/12 58/11/12
f 57/20/12 56/12/12 59/15/12
f 56/12/12 60/14/12 59/15/12
f 60/14/12 56/12/12 61/13/12
f 57/20/12 59/15/12 62/21/12
f 63/16/3 64/21/3 65/15/3
f 64/21/3 63/16/3 66/18/3
f 67/19/13 68/21/13 69/18/13
f 68/21/13 67/19/13 70/20/13
