# Blender v2.76 (sub 0) OBJ File: ''
# www.blender.org
mtllib model.mtl
o Model.003
v 0.500090 -0.080175 -0.000000
v 0.084565 -0.080175 -0.125000
v 0.084565 -0.080175 -0.500000
v 0.084565 -0.080175 0.125000
v 0.084565 -0.080175 0.500000
v 0.500090 -0.080175 -0.000000
v 0.084565 0.089825 0.500000
v 0.084565 -0.080175 0.500000
v 0.500090 0.089825 0.000000
v 0.084565 -0.080175 -0.500000
v 0.500090 0.089825 0.000000
v 0.500090 -0.080175 -0.000000
v 0.084565 0.089825 -0.500000
v 0.084565 -0.080175 -0.125000
v 0.084565 0.089825 -0.500000
v 0.084565 -0.080175 -0.500000
v 0.084565 0.089825 -0.125000
v 0.084565 -0.080175 -0.125000
v -0.499911 0.089825 -0.125000
v 0.084565 0.089825 -0.125000
v -0.499911 -0.080175 -0.125000
v -0.499911 -0.080175 0.125000
v -0.499911 -0.080175 -0.125000
v 0.084565 0.089825 0.125000
v -0.499911 -0.080175 0.125000
v 0.084565 -0.080175 0.125000
v -0.499911 0.089825 0.125000
v 0.084565 0.089825 0.125000
v -0.499911 0.089825 -0.125000
v -0.499911 0.089825 0.125000
v 0.084565 0.089825 -0.125000
v 0.500090 0.089825 0.000000
v 0.084565 0.089825 0.500000
v 0.084565 0.089825 0.125000
v 0.084565 -0.080175 0.500000
v 0.084565 0.089825 0.500000
v 0.084565 -0.080175 0.125000
v 0.084565 0.089825 -0.500000
v -0.499911 0.089825 -0.125000
v -0.499911 -0.080175 0.125000
v -0.499911 0.089825 0.125000
v -0.499911 -0.080175 -0.125000
vt 1.000000 0.500000
vt 0.584476 0.625000
vt 0.584476 1.000000
vt 0.584476 0.375000
vt 0.584476 0.000000
vt 0.000000 0.625000
vt 0.000000 0.375000
vn 0.000000 -1.000000 -0.000000
vn 0.769100 -0.000000 0.639100
vn 0.769100 0.000000 -0.639100
vn -1.000000 -0.000000 0.000000
vn 0.000000 0.000000 -1.000000
vn 0.000000 -0.000000 1.000000
vn -0.000000 1.000000 0.000000
usemtl FrontCol.003
s 1
f 1/1/1 2/2/1 3/3/1
f 2/2/1 1/1/1 4/4/1
f 4/4/1 1/1/1 5/5/1
f 6/1/2 7/5/2 8/5/2
f 7/5/2 6/1/2 9/1/2
f 10/3/3 11/1/3 12/1/3
f 11/1/3 10/3/3 13/3/3
f 14/2/4 15/3/4 16/3/4
f 15/3/4 14/2/4 17/2/4
f 18/2/5 19/6/5 20/2/5
f 19/6/5 18/2/5 21/6/5
f 2/2/1 22/7/1 23/6/1
f 22/7/1 2/2/1 4/4/1
f 24/4/6 25/7/6 26/4/6
f 25/7/6 24/4/6 27/7/6
f 28/4/7 29/6/7 30/7/7
f 29/6/7 28/4/7 31/2/7
f 28/4/7 32/1/7 31/2/7
f 32/1/7 28/4/7 33/5/7
f 34/4/4 35/5/4 36/5/4
f 35/5/4 34/4/4 37/4/4
f 31/2/7 32/1/7 38/3/7
f 39/6/4 40/7/4 41/7/4
f 40/7/4 39/6/4 42/6/4
