# Blender v2.76 (sub 0) OBJ File: ''
# www.blender.org
mtllib model.mtl
o Model_Model.002
v -0.398939 0.109725 0.023939
v -0.500000 -0.000000 -0.125000
v -0.500000 -0.000000 0.125000
v -0.398939 0.109725 -0.023939
v 0.101061 0.109725 0.023939
v -0.398939 0.109725 -0.023939
v -0.398939 0.109725 0.023939
v 0.101061 0.109725 -0.023939
v 0.357078 0.109725 -0.000000
v 0.101061 0.109725 0.256017
v 0.000000 -0.000000 0.125000
v 0.101061 0.109725 0.256017
v 0.101061 0.109725 0.023939
v 0.000000 -0.000000 0.500000
v 0.000000 -0.000000 0.125000
v 0.101061 -0.109725 0.256017
v 0.000000 -0.000000 0.500000
v 0.101061 -0.109725 0.023939
v 0.000000 -0.000000 0.125000
v -0.398939 -0.109725 0.023939
v 0.101061 -0.109725 0.023939
v -0.500000 -0.000000 0.125000
v 0.101061 0.109725 0.023939
v -0.500000 -0.000000 0.125000
v 0.000000 -0.000000 0.125000
v -0.398939 0.109725 0.023939
v -0.500000 -0.000000 -0.125000
v -0.398939 -0.109725 0.023939
v -0.500000 -0.000000 0.125000
v -0.398939 -0.109725 -0.023939
v -0.500000 -0.000000 -0.125000
v 0.101061 -0.109725 -0.023939
v -0.398939 -0.109725 -0.023939
v -0.000000 -0.000000 -0.125000
v -0.398939 0.109725 -0.023939
v -0.000000 -0.000000 -0.125000
v -0.500000 -0.000000 -0.125000
v 0.101061 0.109725 -0.023939
v 0.101061 0.109725 -0.256017
v -0.000000 -0.000000 -0.125000
v 0.101061 0.109725 -0.023939
v -0.000000 -0.000000 -0.500000
v 0.101061 0.109725 -0.256017
v 0.500000 -0.000000 0.000000
v -0.000000 -0.000000 -0.500000
v 0.357078 0.109725 -0.000000
v 0.101061 0.109725 -0.256017
v 0.101061 0.109725 0.256017
v 0.500000 -0.000000 0.000000
v 0.357078 0.109725 -0.000000
v 0.000000 -0.000000 0.500000
v 0.101061 -0.109725 0.256017
v 0.500000 -0.000000 0.000000
v 0.000000 -0.000000 0.500000
v 0.357078 -0.109725 -0.000000
v 0.101061 -0.109725 0.023939
v 0.357078 -0.109725 -0.000000
v 0.101061 -0.109725 0.256017
v 0.101061 -0.109725 -0.023939
v -0.398939 -0.109725 -0.023939
v -0.398939 -0.109725 0.023939
v 0.101061 -0.109725 -0.256017
v -0.000000 -0.000000 -0.125000
v 0.101061 -0.109725 -0.256017
v 0.101061 -0.109725 -0.023939
v -0.000000 -0.000000 -0.500000
v 0.500000 -0.000000 0.000000
v 0.101061 -0.109725 -0.256017
v -0.000000 -0.000000 -0.500000
v 0.357078 -0.109725 -0.000000
vt 0.714905 0.898636
vt 0.815753 0.999643
vt 0.646476 0.999643
vt 0.747324 0.898636
vt 0.338910 0.157500
vt 0.000357 0.189918
vt 0.000357 0.157499
vt 0.338910 0.189918
vt 0.512261 0.173709
vt 0.338910 0.000357
vt 0.729608 0.132809
vt 0.706611 0.000357
vt 0.840679 0.082329
vt 0.512976 0.000357
vt 0.577332 0.898636
vt 0.488620 0.999643
vt 0.323417 0.898636
vt 0.645762 0.999643
vt 0.851530 0.469419
vt 0.581405 0.368412
vt 0.919959 0.368412
vt 0.512976 0.469419
vt 0.919959 0.367698
vt 0.512976 0.266690
vt 0.851530 0.266691
vt 0.581405 0.367697
vt 0.985745 0.898636
vt 0.884897 0.999643
vt 0.816468 0.898636
vt 0.917316 0.999643
vt 0.512976 0.470134
vt 0.919960 0.571141
vt 0.581405 0.571141
vt 0.851530 0.470134
vt 0.581405 0.571855
vt 0.851530 0.672862
vt 0.512976 0.672862
vt 0.919959 0.571855
vt 0.157499 0.898636
vt 0.068786 0.999643
vt 0.000357 0.898636
vt 0.322702 0.999643
vt 0.313942 0.796200
vt 0.000357 0.695193
vt 0.479145 0.695193
vt 0.068787 0.796200
vt 0.338910 0.347060
vt 0.645062 0.796200
vt 0.958648 0.695193
vt 0.890218 0.796200
vt 0.479860 0.695193
vt 0.165560 0.796914
vt 0.479145 0.897921
vt 0.000357 0.897921
vt 0.410716 0.796914
vt 0.338910 0.537336
vt 0.512261 0.521127
vt 0.338910 0.694478
vt 0.338910 0.504917
vt 0.000357 0.504917
vt 0.000357 0.537336
vt 0.338910 0.347775
vt 0.624047 0.133524
vt 0.647044 0.265976
vt 0.512976 0.184004
vt 0.840679 0.265976
vt 0.479860 0.897921
vt 0.793445 0.796914
vt 0.958648 0.897921
vt 0.548289 0.796914
vn -0.735600 0.677500 0.000000
vn 0.000000 1.000000 0.000000
vn -0.735600 -0.677500 0.000000
vn 0.000000 -0.677500 0.735600
vn 0.000000 0.677500 0.735600
vn -0.735500 -0.677500 0.000000
vn 0.000000 -0.677500 -0.735600
vn 0.000000 0.677500 -0.735600
vn 0.520100 0.677500 -0.520100
vn 0.520100 0.677500 0.520100
vn 0.520100 -0.677500 0.520100
vn 0.000000 -1.000000 0.000000
vn 0.520100 -0.677500 -0.520100
usemtl FrontCol
s off
f 1/1/1 2/2/1 3/3/1
f 2/2/1 1/1/1 4/4/1
f 5/5/2 6/6/2 7/7/2
f 6/6/2 5/5/2 8/8/2
f 5/5/2 9/9/2 8/8/2
f 9/9/2 5/5/2 10/10/2
f 11/11/1 12/12/1 13/13/1
f 12/12/1 11/11/1 14/14/1
f 15/15/3 16/16/3 17/17/3
f 16/16/3 15/15/3 18/18/3
f 19/19/4 20/20/4 21/21/4
f 20/20/4 19/19/4 22/22/4
f 23/23/5 24/24/5 25/25/5
f 24/24/5 23/23/5 26/26/5
f 27/27/3 28/28/3 29/29/3
f 28/28/6 27/27/6 30/30/6
f 31/31/7 32/32/7 33/33/7
f 32/32/7 31/31/7 34/34/7
f 35/35/8 36/36/8 37/37/8
f 36/36/8 35/35/8 38/38/8
f 39/39/1 40/40/1 41/41/1
f 40/40/1 39/39/1 42/42/1
f 43/43/9 44/44/9 45/45/9
f 44/44/9 43/43/9 46/46/9
f 8/8/2 9/9/2 47/47/2
f 48/48/10 49/49/10 50/50/10
f 49/49/10 48/48/10 51/51/10
f 52/52/11 53/53/11 54/54/11
f 53/53/11 52/52/11 55/55/11
f 56/56/12 57/57/12 58/58/12
f 57/57/12 56/56/12 59/59/12
f 56/56/12 60/60/12 59/59/12
f 60/60/12 56/56/12 61/61/12
f 57/57/12 59/59/12 62/62/12
f 63/63/3 64/64/3 65/65/3
f 64/64/3 63/63/3 66/66/3
f 67/67/13 68/68/13 69/69/13
f 68/68/13 67/67/13 70/70/13
